{
  "title": "Dracula Untold 2014 720p CAM FIRST ENGLISH x264 Pimp4003",
  "uid": 11194327,
  "size": 1607676656,
  "categoryP": "video",
  "categoryS": "movies",
  "magnet": "?xt=urn:btih:77d5aab26dfdf6c3d10f502fea6a06be205fba51&amp;dn=Dracula+Untold+2014+720p+CAM+FIRST+ENGLISH+x264+Pimp4003&amp;tr=udp%3A%2F%2Ftracker.openbittorrent.com%3A80&amp;tr=udp%3A%2F%2Fopen.demonii.com%3A1337&amp;tr=udp%3A%2F%2Ftracker.coppersurfer.tk%3A6969&amp;tr=udp%3A%2F%2Fexodus.desync.com%3A6969",
  "seeders": 90,
  "leechers": 2,
  "uploader": "shawnmurthy",
  "files": -1,
  "time": 1413058453,
  "description": "PIMP4003 PROUDLY PRESENTS....A PIMP4003 EXCLUSIVE\n &lt;a href=&quot;\nhttp://i.imgur.com/fW5GLTr.jpg&quot; rel=&quot;nofollow&quot; target=&quot;_NEW&quot;&gt;\nhttp://i.imgur.com/fW5GLTr.jpg&lt;/a&gt;\n\nSOURCE IS SpEcTrE AND YES IN ENGLISH.....FOR THE FIRST VERSION THIS CAM IS NOT BAD AT ALL.....WAS VERY DARK IN CERTAIN PARTS BRIGHTENED IT AND FIXED THE CONTRAST AS WELL.....AUDIO WAS VERY LOW THE BITRATE WAS SETUP IN A BAD WAY ON THIS ONE....aSO I INCREASED IT DID MAKE A LITTLE DIFFERENCE BUT NOT BY MUCH............ENJOY.....PIMP4003\n &lt;a href=&quot;\nhttp://i.imgur.com/Upc2qYe.jpg&quot; rel=&quot;nofollow&quot; target=&quot;_NEW&quot;&gt;\nhttp://i.imgur.com/Upc2qYe.jpg&lt;/a&gt; &lt;a href=&quot;\nhttp://i.imgur.com/8yR6h3k.png&quot; rel=&quot;nofollow&quot; target=&quot;_NEW&quot;&gt;\nhttp://i.imgur.com/8yR6h3k.png&lt;/a&gt; &lt;a href=&quot;\nhttp://i.imgur.com/pqNe2k5.png&quot; rel=&quot;nofollow&quot; target=&quot;_NEW&quot;&gt;\nhttp://i.imgur.com/pqNe2k5.png&lt;/a&gt;\n\nFOR REQUESTS, EXCLUSIVE MOVIES AND SUPER FAST SPEEDS AND FOR SCREENSHOTS AND SAMPLE....CLICK BELOW LINK\n\nDracula Untold 2014 720p CAM FIRST ENGLISH x264 Pimp4003\n\nENJOY\n\nPIMP4003\n\nVideo\nID                                       : 1\nFormat                                   : MPEG-4 Visual\nFormat profile                           : Simple@L3\nFormat settings, BVOP                    : No\nFormat settings, QPel                    : No\nFormat settings, GMC                     : No warppoints\nFormat settings, Matrix                  : Default (H.263)\nCodec ID                                 : 20\nDuration                                 : 1h 25mn\nBit rate                                 : 2 405 Kbps\nWidth                                    : 1 280 pixels\nHeight                                   : 536 pixels\nDisplay aspect ratio                     : 2.40:1\nFrame rate mode                          : Variable\nFrame rate                               : 59.940 fps\nMinimum frame rate                       : 59.916 fps\nMaximum frame rate                       : 60.157 fps\nColor space                              : YUV\nChroma subsampling                       : 4:2:0\nBit depth                                : 8 bits\nScan type                                : Progressive\nCompression mode                         : Lossy\nBits/(Pixel*Frame)                       : 0.058\nStream size                              : 1.44 GiB (96%)\nWriting library                          : ZJMedia MPEG Encoder\n\nAudio\nID                                       : 2\nFormat                                   : AAC\nFormat/Info                              : Advanced Audio Codec\nFormat profile                           : LC\nCodec ID                                 : 40\nDuration                                 : 1h 25mn\nBit rate mode                            : Variable\nBit rate                                 : 91.0 Kbps\nChannel(s)                               : 2 channels\nChannel positions                        : Front: L R\nSampling rate                            : 48.0 KHz\nCompression mode                         : Lossy\nStream size                              : 55.7 MiB (4%)\n\n",
  "parsed": {
    "xt": "urn:btih:77d5aab26dfdf6c3d10f502fea6a06be205fba51",
    "dn": "Dracula Untold 2014 720p CAM FIRST ENGLISH x264 Pimp4003",
    "tr": [
      "udp://exodus.desync.com:6969",
      "udp://open.demonii.com:1337",
      "udp://tracker.coppersurfer.tk:6969",
      "udp://tracker.openbittorrent.com:80"
    ],
    "infoHash": "77d5aab26dfdf6c3d10f502fea6a06be205fba51",
    "infoHashBuffer": {
      "type": "Buffer",
      "data": [
        119,
        213,
        170,
        178,
        109,
        253,
        246,
        195,
        209,
        15,
        80,
        47,
        234,
        106,
        6,
        190,
        32,
        95,
        186,
        81
      ]
    },
    "name": "Dracula Untold 2014 720p CAM FIRST ENGLISH x264 Pimp4003",
    "announce": [
      "udp://exodus.desync.com:6969",
      "udp://open.demonii.com:1337",
      "udp://tracker.coppersurfer.tk:6969",
      "udp://tracker.openbittorrent.com:80"
    ],
    "urlList": []
  },
  "previous": 1,
  "peers": 1,
  "last_updated": "2016-12-27T04:22:11.310Z"
}